<?xml version="1.0" encoding="UTF-8" standalone="no"?>
<!-- Created with Inkscape (http://www.inkscape.org/) -->

<svg
   width="10.583374mm"
   height="10.592583mm"
   viewBox="0 0 10.583374 10.592583"
   version="1.1"
   id="svg5"
   xml:space="preserve"
   xmlns:inkscape="http://www.inkscape.org/namespaces/inkscape"
   xmlns:sodipodi="http://sodipodi.sourceforge.net/DTD/sodipodi-0.dtd"
   xmlns="http://www.w3.org/2000/svg"
   xmlns:svg="http://www.w3.org/2000/svg"><sodipodi:namedview
     id="namedview7"
     pagecolor="#ffffff"
     bordercolor="#000000"
     borderopacity="0.25"
     inkscape:showpageshadow="2"
     inkscape:pageopacity="0.0"
     inkscape:pagecheckerboard="0"
     inkscape:deskcolor="#d1d1d1"
     inkscape:document-units="px"
     showgrid="false" /><defs
     id="defs2" /><g
     inkscape:label="Camada 1"
     inkscape:groupmode="layer"
     id="layer1"
     transform="translate(-415.10676,-101.06223)"><path
       style="fill:#ffffff;stroke-width:0.999999"
       d="m 424.93474,111.59587 c -0.0912,-0.0457 -0.37808,-0.31708 -1.12261,-1.06212 l -1.00008,-1.00077 -0.17661,0.13222 c -0.52941,0.39638 -1.28117,0.71501 -1.98499,0.84133 -0.34206,0.0614 -1.0272,0.0742 -1.39209,0.0261 -1.80174,-0.23774 -3.30653,-1.46451 -3.89703,-3.17705 -0.40485,-1.17409 -0.32369,-2.4993 0.22128,-3.61312 0.56508,-1.15494 1.54474,-2.01742 2.7545,-2.42507 0.997,-0.33595 2.02192,-0.34022 3.00696,-0.0125 1.75646,0.58431 3.00271,2.11165 3.23159,3.96046 0.0377,0.30484 0.0318,0.87353 -0.0123,1.19028 -0.10868,0.77923 -0.42481,1.56086 -0.87273,2.15784 l -0.12322,0.16422 1.00274,1.00008 c 0.78048,0.77841 1.01584,1.02754 1.06189,1.12394 0.10288,0.21543 0.0683,0.42627 -0.097,0.59136 -0.17118,0.17092 -0.38952,0.20834 -0.60021,0.10285 z m -4.44531,-2.13439 c 1.08159,-0.17877 2.07521,-0.89404 2.61965,-1.88576 0.38613,-0.70336 0.5267,-1.56889 0.38815,-2.38993 -0.26558,-1.5738 -1.52137,-2.79625 -3.11376,-3.03111 -0.35968,-0.053 -0.93839,-0.0358 -1.28623,0.0383 -1.45255,0.30957 -2.55748,1.42537 -2.87128,2.89953 -0.0743,0.34893 -0.08,1.03242 -0.0117,1.38725 0.14543,0.75504 0.49787,1.42357 1.03124,1.95612 0.85158,0.85027 2.03702,1.22505 3.24392,1.02557 z"
       id="path306"
       inkscape:export-filename="busca-preto.svg"
       inkscape:export-xdpi="96"
       inkscape:export-ydpi="96" /></g></svg>
